<?xml version="1.0" encoding="UTF-8" standalone="no"?><svg xmlns="http://www.w3.org/2000/svg" xmlns:xlink="http://www.w3.org/1999/xlink" style="isolation:isolate" viewBox="0 0 400 400" width="400pt" height="400pt"><defs><clipPath id="_clipPath_DWvfRSJPHlohT7sIza65U4s9AzoxDyYY"><rect width="400" height="400"/></clipPath></defs><g clip-path="url(#_clipPath_DWvfRSJPHlohT7sIza65U4s9AzoxDyYY)"><path d=" M 79 342 C 79 325.333 79 308.667 79 292 C 79 273.333 79 257.667 79 242 C 79 236 79 233 79 230 C 79 219.118 83.752 196.503 79 187 C 73.758 176.515 76.966 157.83 75 148 C 74.389 144.947 75 141.148 75 138 C 75 120.778 77 106.859 77 93 C 77 83.32 80 74.529 80 66 C 80 53.644 85.192 57 93 57 C 109.667 57 124.333 57 139 57 C 148.333 57 155.667 57 163 57 C 172.129 57 179.73 56 188 56 C 197.667 56 206.333 56 215 56 C 223.333 56 230.667 56 238 56 C 246.82 56 251 54.643 251 63 C 251 81.712 250 100.021 250 118 C 250 140.716 248 160.224 248 180 C 248 196.019 247 210.715 247 225 C 247 241.667 247 256.333 247 271 C 247 286 247 299 247 312 C 247 321.333 247 329.667 247 338 C 247 345.425 231.555 339.722 227 342 C 215.662 347.669 194.901 348 184 348 C 169.878 348 157.359 349 145 349 C 133.443 349 122.88 348 114 348 C 104.5 348 97.086 344 90 344 C 89 344 81 343 79 342 Z " fill="#d6322f"/><path d=" M 247 338 C 248.222 333.776 255.524 329.476 260 325 C 266.924 325 272.429 313 277 313 C 279.378 313 289.802 302.198 292 300 C 295.672 296.328 305 287.489 305 285 C 305 281.858 311 276.878 311 270 C 311 258.692 312 247.667 312 237 C 312 216.988 313 199.161 313 181 C 313 159.05 315 138.451 315 118 C 315 112.667 315 109.333 315 106 C 315 106 315 87 315 87 C 316 88 316 72 316 72 C 316 60.333 316 50.667 316 41 C 316 32.667 316 25.333 316 18 C 316 8.463 312.22 8.78 307 14 C 307 14 305 15 305 15 C 305 17.437 292 21.928 292 26 C 292 27 274 41 274 41 C 271.181 41 259.815 47.185 258 49 C 252.138 54.862 250 53.559 250 63 C 250 73.333 250 82.667 250 92 C 250 104.333 250 114.667 250 125 C 250 135.358 251 145.301 251 155 C 251 164.925 249 171.789 249 180 C 249 187.652 247 195.234 247 201 C 247 209.33 247 217.982 247 225 C 247 236.851 248 247.864 248 259 C 248 271.667 248 282.333 248 293 C 248 301.667 248 309.333 248 317 C 248 323.914 247.253 330.759 247 338 Z " fill="#ba3836"/><path d=" M 83 53 C 88.662 52.464 93.294 46.569 98 45 C 99.956 43.044 110.921 35 113 35 C 116.055 35 126.715 26.285 129 24 C 133.424 19.576 140.143 17.857 144 14 C 149.349 8.651 161.383 9 168 9 C 176.817 9 184.28 7 192 7 C 202.155 7 211.394 6 221 6 C 228.667 6 235.333 6 242 6 C 250 6 257 6 264 6 C 272.125 6 278.025 7 285 7 C 292.333 7 298.667 7 305 7 C 313.993 7 316.088 15 309 15 C 303.181 15 299.515 20.485 296 24 C 289.617 30.383 281.728 32.272 277 37 C 275.31 38.69 259 46.61 259 47 C 259 49.293 246.497 53 243 53 C 234.698 53 225.296 55 218 55 C 209.69 55 202.701 56 195 56 C 185.294 56 177.826 57 169 57 C 160 57 152 57 144 57 C 134.667 57 126.333 57 118 57 C 110 57 103 57 96 57 C 89.772 57 84.471 55.471 83 53 Z " fill="#e0605e"/></g></svg>
