<?xml version="1.0" encoding="UTF-8" standalone="no"?><!-- Generator: Gravit.io --><svg xmlns="http://www.w3.org/2000/svg" xmlns:xlink="http://www.w3.org/1999/xlink" style="isolation:isolate" viewBox="0 0 400 400" width="400pt" height="400pt"><defs><clipPath id="_clipPath_ZKAIbzypIHAbJe5fA0B3v0130rBZPRuV"><rect width="400" height="400"/></clipPath></defs><g clip-path="url(#_clipPath_ZKAIbzypIHAbJe5fA0B3v0130rBZPRuV)"><defs><mask id="_mask_0KLeeLL6JKLb5Aym2tmCAMPSS2Ekhxku"><path d="M 0 0 L 400 0 L 400 400 L 0 400 L 0 0 Z" style="stroke:black;fill:white;stroke-miterlimit:10;"/></mask><mask id="_mask_9UW679zOWmnE5bNCFAM5KTZ0BQZ7rHog"><path d="M 0 0 L 400 0 L 400 400 L 0 400 L 0 0 Z" style="stroke:black;fill:white;stroke-miterlimit:10;"/></mask></defs><g mask="url(#_mask_9UW679zOWmnE5bNCFAM5KTZ0BQZ7rHog)"><g mask="url(#_mask_0KLeeLL6JKLb5Aym2tmCAMPSS2Ekhxku)"/></g><g mask="url(#_mask_0KLeeLL6JKLb5Aym2tmCAMPSS2Ekhxku)"><use xlink:href="#img_ayrNcd6U6QxDc4e2VVr3ZYCsnZXnihjV" transform="matrix(0.4,0,0,0.4,0,0)" preserveAspectRatio="none" style=""/></g><path id="handle" d=" M 313 252 C 321.325 247.115 330.527 244.188 338.333 238.333 C 344.564 232.103 355.257 221.871 361 219 C 366.877 216.062 377 198.259 377 193 C 377 183.891 381 175.135 381 166.333 C 381 156.616 373 147.502 373 139.667 C 373 134.116 357.886 120.333 352.333 120.333 C 343.74 120.333 334.593 115 325.667 115 C 317.597 115 303.927 123.812 301 129.667 C 296.075 139.516 287.885 142.103 293.667 153.667 C 295.668 157.67 296.305 160.276 297.667 163 C 298.757 165.181 312.333 176.781 312.333 171 C 312.333 161.587 309 152.69 309 143.667 C 309 132.889 326.826 133.754 332.333 131 C 339.222 127.556 355.944 136.221 358.333 141 C 362.577 149.488 367.667 159.722 367.667 167.667 C 367.667 178.383 367.885 185.897 363.667 194.333 C 357.585 206.497 348.582 208.085 341 215.667 C 332.574 224.092 322.679 224.974 317.667 235 C 315.183 239.967 312.888 248.888 313 252 Z " fill="rgb(232,232,232)"/><path id="main" d=" M 290 139.667 C 281.643 134.311 272.078 129.157 267.667 120.333 C 260.083 116.541 269.596 122.369 261.667 126.333 C 261.222 126.556 260.778 126.778 260.333 127 C 257.667 128.333 255 129.667 252.333 131 C 242.496 135.919 233.076 139.667 223.667 139.667 C 212.778 139.667 203.222 139.667 193.667 139.667 C 183.865 139.667 175.461 135.667 167 135.667 C 162.784 135.667 158.96 133.647 156.333 132.333 C 153.379 130.856 143.841 121 153.667 121 C 160.006 121 153.958 109.084 148.333 120.333 C 148.111 120.778 147.965 121.269 147.667 121.667 C 147.29 122.169 146.71 122.497 146.333 123 C 146.035 123.398 146.018 123.982 145.667 124.333 C 143.519 126.481 139.681 126.985 137.667 129 C 129.946 136.721 122.2 141.934 118.333 149.667 C 114.676 156.981 116.637 149.06 111.667 159 C 110.148 162.037 109.814 165.372 108.333 168.333 C 103.718 177.563 103 190.085 103 199 C 103 209.591 101.9 225.467 105.667 233 C 110.242 242.151 107.487 253.308 111.667 261.667 C 115.132 268.596 119.51 273.354 122.333 279 C 122.875 280.084 124.639 288.153 125 288.333 C 135.012 293.339 137.184 299.092 147.667 304.333 C 157.661 309.33 170.447 319.667 180.333 319.667 C 190.979 319.667 200.911 323.667 211 323.667 C 218.872 323.667 234.503 321.915 240.333 319 C 251.549 313.392 261.899 314.101 270.333 305.667 C 276.975 299.025 295.667 285.22 295.667 277 C 295.667 275.116 300.991 269.235 301.667 268.333 C 305.657 263.013 307.457 257.42 310.333 251.667 C 315.59 241.154 319.667 235.467 319.667 225 C 319.667 213.893 317.667 204.845 317.667 196.333 C 317.667 192.188 315.69 188.428 315 185.667 C 314.306 182.889 314.363 179.785 313.667 177 C 312.715 173.193 307.631 174.263 306.333 171.667 C 301.707 162.414 290.333 159.071 290.333 147.667 C 290.333 144.029 291 132.22 290 139.667 Z " fill="rgb(209,209,209)"/><path id="lid" d=" M 265 115 C 268.473 125.458 255.991 130.086 247 132.333 C 238.135 136.766 225.499 139.667 217 139.667 C 207.858 139.667 190.828 140.414 184 137 C 175.564 132.782 163.345 135.172 156.333 131.667 C 142.451 124.725 158.579 116.21 165 113 C 175.076 107.962 182.286 105 192.333 105 C 200.678 105 194.327 97.641 193.667 95 C 192.018 88.406 196.713 86.907 199 82.333 C 203.14 74.054 221.667 81.583 221.667 88.333 C 221.667 100.4 219.037 105.667 233 105.667 C 241.429 105.667 253.948 108.474 260.333 111.667 L 265 115 Z " fill="rgb(185,185,185)"/><path id="highlight" d=" M 167 175 C 162.601 183.319 158.333 192.805 158.333 202.333 C 158.333 209.102 155.404 211.667 162.333 211.667 C 167.667 211.667 173 211.667 178.333 211.667 C 189.219 211.667 199.667 219.371 199.667 206.333 C 199.667 198.409 204.307 180.333 197 180.333 C 192.678 180.333 189.524 181 186.333 181 C 183.475 181 167 179.33 167 175 Z " fill="rgb(232,232,232)"/><path id="spout" d=" M 105.667 168.333 C 99.863 167.387 90.724 155.965 85 148.333 C 80.051 138.435 69.482 130.241 61.667 126.333 C 51.93 121.465 49.25 122 35.667 131.667 C 34.675 133.65 11.781 154.943 30.333 145.667 C 40.526 140.57 50.091 152.274 52.333 159 C 55.667 169 64.333 181.915 64.333 190.333 C 64.333 198.198 70.05 214.434 73 220.333 C 77.898 230.13 79.883 240.099 84.333 249 C 88.498 257.329 95.508 270.333 105 270.333 C 106.712 270.333 121.04 281.161 120 277 C 118.749 271.996 115.738 257.215 114 252 C 110.525 241.574 105.667 233.845 105.667 225 C 105.667 217.099 101.72 202.894 105 196.333 C 109.642 187.05 101.844 179.312 105.667 171.667 C 108.022 166.957 103.667 166.03 105.667 168.333 Z " fill="rgb(232,232,232)"/></g><defs></defs>

<script>
if (location.search.split("=")[1] == "red") {
document.getElementById("handle").style.fill = "#d12d2a";
document.getElementById("top").style.fill = "#e83d3a";
document.getElementById("main").style.fill = "#b32d2b";
document.getElementById("spout").style.fill = "#d12d2a";
document.getElementById("highlight").style.fill = "#e0605e";
}
</script>
</svg>
